{"title":"Ben 10 Omniverse The More Things Change EPISODE-2","uid":8615829,"size":139782622,"categoryP":"video","categoryS":"tv_shows","magnet":"?xt=urn:btih:9e23027eed5b6cebcf4931b59a1848701d8de920&amp;dn=Ben+10+Omniverse+The+More+Things+Change+EPISODE-2&amp;tr=udp%3A%2F%2Ftracker.openbittorrent.com%3A80&amp;tr=udp%3A%2F%2Fopen.demonii.com%3A1337&amp;tr=udp%3A%2F%2Ftracker.coppersurfer.tk%3A6969&amp;tr=udp%3A%2F%2Fexodus.desync.com%3A6969","seeders":1,"leechers":0,"uploader":"mettleedge","files":1,"time":1372205203,"description":"[size=200]Info[/size][color=red][/color]\n\nGeneral \n\nFormat : Matroska \nFormat version : Version 2 \nFile size : 133 MiB \nDuration : 22mn 2s \nOverall bit rate : 845 Kbps \nWriting application : Lavf52.39.1 \nWriting library : Lavf52.39.1 \n\nVideo \nID : 1 \nFormat : MPEG-4 Visual \nFormat profile : Simple@L1 \nFormat settings, BVOP : No \nFormat settings, QPel : No \nFormat settings, GMC : No warppoints \nFormat settings, Matrix : Default (H.263) \nCodec ID : V_MPEG4/ISO/ASP \nCodec ID/Info : Advanced Simple Profile \nDuration : 22mn 2s \nBit rate : 701 Kbps \nWidth : 640 pixels \nHeight : 360 pixels \nDisplay aspect ratio : 16:9 \nFrame rate mode : Constant \nFrame rate : 30.000 fps \nColor space : YUV \nChroma subsampling : 4:2:0 \nBit depth : 8 bits \nScan type : Progressive \nCompression mode : Lossy \nBits/(Pixel*Frame) : 0.101 \nStream size : 110 MiB (83%) \nWriting library : Lavc52.37.0 \nDefault : Yes \nForced : No \n\nAudio \nID : 2 \nFormat : MPEG Audio \nFormat version : Version 1 \nFormat profile : Layer 2 \nCodec ID : A_MPEG/L2 \nCodec ID/Hint : MP2 \nDuration : 22mn 2s \nBit rate mode : Constant \nBit rate : 128 Kbps \nChannel(s) : 2 channels \nSampling rate : 44.1 KHz \nCompression mode : Lossy \nStream size : 20.2 MiB (15%) \nDefault : Yes \nForced : No \n\n[color=red]Screens[/color][size=200][/size]\n\n[img]http://i.imgbox.com/acw4kUCe.png[/img]\n\n[img]http://i.imgbox.com/adcSMrUb.png[/img]\n\n\n[img]http://i.imgbox.com/achX4gxi.png[/img]\n\n[img]http://i.imgbox.com/abceVjsA.png[/img]\n\n\n[img]http://i.imgbox.com/adg5TnlK.png[/img]\n\n\n","torrent":{"xt":"urn:btih:9e23027eed5b6cebcf4931b59a1848701d8de920","amp;dn":"Ben+10+Omniverse+The+More+Things+Change+EPISODE-2","amp;tr":["udp%3A%2F%2Ftracker.openbittorrent.com%3A80","udp%3A%2F%2Fopen.demonii.com%3A1337","udp%3A%2F%2Ftracker.coppersurfer.tk%3A6969","udp%3A%2F%2Fexodus.desync.com%3A6969"],"infoHash":"9e23027eed5b6cebcf4931b59a1848701d8de920","infoHashBuffer":{"type":"Buffer","data":[158,35,2,126,237,91,108,235,207,73,49,181,154,24,72,112,29,141,233,32]},"announce":[],"urlList":[]}}